<svg width="1194" height="333" viewBox="0 0 1194 333" fill="none" xmlns="http://www.w3.org/2000/svg">
<path d="M0.845703 166.5C0.845703 257.949 1.07195 332.736 1.37361 332.736C1.8261 332.736 63.2891 321.352 70.8306 319.844L74.7522 319.09V197.033H121.509V185.875C121.509 179.769 121.736 163.861 122.037 150.442L122.49 126.166H74.7522V72.639H102.279C117.437 72.639 129.805 72.4882 129.805 72.262C129.805 71.4327 135.838 7.0493 136.215 3.80751L136.668 0.26416H0.845703V166.5ZM1128.9 9.98953L1068.72 14.9653V315.321L1071.21 315.698C1073.39 316.075 1189.91 324.518 1192.25 324.443C1192.93 324.443 1193.15 316.452 1193.15 287.125V249.807H1141.87V195.525H1185.61V130.69H1140.36V87.7171L1142.1 87.4155C1143 87.1894 1150.69 86.8878 1159.22 86.5862C1167.74 86.3601 1178.82 85.9831 1183.95 85.6815L1193.15 85.2292V4.78759L1191.12 4.86298C1189.91 4.93837 1161.93 7.20008 1128.9 9.98953V9.98953ZM742.55 20.3934C743.304 27.9325 751.901 141.546 751.751 141.697C751.675 141.847 740.589 114.631 727.09 81.2335C713.666 47.8355 702.354 20.1672 702.052 19.6395C701.6 18.8102 680.785 22.6551 646.622 29.8926L643.38 30.5711V289.763H710.499L710.122 284.335C709.368 274.233 706.577 190.7 706.879 187.383C707.105 184.443 709.368 189.57 730.785 241.287C743.757 272.725 754.767 298.735 755.069 299.187C755.521 299.64 766.004 298.961 783.802 297.453C799.262 296.096 811.932 294.89 811.932 294.815C812.007 294.739 811.63 240.383 811.102 174.039C810.574 107.696 810.122 45.0461 810.122 34.7176L810.046 16.0962H742.098L742.55 20.3934ZM211.63 20.695C166.532 23.7106 141.721 54.5453 133.877 117.119C132.294 130.087 131.615 174.115 132.746 189.494C136.517 239.403 150.016 271.821 173.998 288.331C186.894 297.152 206.276 301.901 225.431 300.771C247.226 299.564 262.082 293.382 275.431 280.038C286.366 269.107 292.324 258.853 298.055 241.363C306.049 216.936 309.669 180.447 307.859 142.451C305.823 99.9303 299.413 73.4683 286.215 53.1883C273.621 33.8883 253.711 22.3536 230.484 20.9211C226.788 20.695 222.867 20.4688 221.811 20.318C220.755 20.2426 216.23 20.3934 211.63 20.695V20.695ZM222.263 79.9519C227.769 85.9077 230.107 109.656 230.107 160.469C230.107 223.043 226.185 249.053 217.588 243.474C213.892 240.986 211.102 228.848 209.745 208.719C208.764 194.018 208.764 126.694 209.745 112.596C211.178 92.6929 213.742 81.6858 217.588 79.0472C219.699 77.5394 220.076 77.6148 222.263 79.9519V79.9519ZM317.588 157.755V295.041H386.743L387.196 285.466C387.497 280.114 388.101 262.774 388.553 246.791C389.006 230.808 389.609 216.786 389.911 215.655C390.288 214.071 393.53 224.249 403.485 258.627C410.725 283.431 416.834 304.012 417.135 304.314C417.739 304.992 488.478 299.413 489.232 298.66C489.458 298.358 481.615 273.705 471.811 243.7L454.013 189.268L457.784 185.951C470.303 175.019 480.634 153.91 483.576 133.027C484.858 123.905 484.028 101.287 482.067 92.919C474.526 60.1242 454.541 34.6422 429.051 25.143C417.965 21.0719 418.87 21.1473 366.457 20.8458L317.588 20.5442V157.755ZM395.34 85.5308C400.695 88.1694 405.069 94.9546 407.407 104.303C408.99 110.56 408.764 130.388 407.03 136.721C403.787 148.633 398.055 155.568 389.458 158.207L387.724 158.66V83.1937L390.212 83.7214C391.494 83.9476 393.832 84.7769 395.34 85.5308ZM485.763 56.43V91.4866H524.224V293.533H596.622V103.549H635.838V33.436L634.179 33.1344C632.595 32.7574 488.779 21.2981 486.743 21.3735C485.989 21.3735 485.763 28.9125 485.763 56.43ZM825.883 165.746V302.58H900.544V28.9125H825.883V165.746ZM985.763 38.4117C944.888 40.5981 910.876 42.4074 910.197 42.4074C908.915 42.4828 908.84 44.6691 908.84 77.9163V113.35H947.301V311.627H1020.45V105.057H1061.18V69.6234C1061.18 50.0972 1060.95 34.2653 1060.65 34.2653C1060.27 34.3406 1026.64 36.15 985.763 38.4117V38.4117Z" fill="white"/>
</svg>
