<svg width="1968" height="345" viewBox="0 0 1968 345" fill="none" xmlns="http://www.w3.org/2000/svg">
<g clip-path="url(#clip0_107_160)">
<path d="M71.0582 40.0951C71.8771 39.3135 72.7333 38.5691 73.6638 37.8992C98.6776 21.6719 127.525 13 159.537 13C189.464 13 217.53 21.2997 241.427 35.6661C243.177 36.671 247.941 39.9462 250.361 42.8865C227.245 17.429 159.351 72.103 159.351 72.103C135.9 53.9776 114.274 41.6583 98.2309 37.2293C84.7563 33.5446 75.4878 36.6338 71.0582 40.0951ZM276.491 64.1383C275.821 63.3567 275.04 62.6495 274.332 61.8307C268.526 55.4291 261.342 53.9032 254.865 54.2753C248.946 56.1735 221.736 65.962 188.199 97.6349C188.199 97.6349 225.943 134.332 249.095 171.886C272.211 209.402 286.02 238.916 277.534 279.82C304.26 250.454 319.074 212.194 319 172.481C319 130.685 302.92 92.5732 276.491 64.1383ZM218.87 187.89C204.167 171.439 188.943 155.435 173.272 139.915C168.88 135.561 164.227 130.983 159.314 126.256C159.314 126.256 151.944 133.625 142.414 143.302V143.265C130.168 155.659 114.274 171.774 105.452 181.228C89.7441 197.976 44.7417 250.566 42.2477 280.08C42.2477 280.08 32.2348 256.707 54.1963 202.74C68.5271 167.42 111.892 114.495 129.982 97.2255C129.982 97.2255 113.418 79.0629 92.6847 66.483L92.5358 66.4458C92.5358 66.4458 92.2753 66.2597 91.9775 66.0736C82.0018 60.1187 71.0582 55.5036 60.5986 54.8708C49.9156 55.6524 43.1039 63.5055 43.1039 63.5055C15.3728 92.9454 -0.0746662 131.988 -0.000220446 172.519C-0.000220446 260.615 71.3933 332 159.537 332C206.289 332 248.314 311.865 277.534 279.782C277.534 279.745 274.183 258.717 252.743 228.532C247.644 221.498 229.255 199.465 218.87 187.89Z" fill="white"/>
</g>
<path d="M501.633 192.771V167.576L592.6 167.43V247.117C578.635 258.25 564.23 266.648 549.387 272.312C534.543 277.879 519.309 280.662 503.684 280.662C482.59 280.662 463.4 276.17 446.115 267.186C428.928 258.104 415.939 245.018 407.15 227.928C398.361 210.838 393.967 191.746 393.967 170.652C393.967 149.754 398.312 130.271 407.004 112.205C415.793 94.041 428.391 80.5645 444.797 71.7754C461.203 62.9863 480.1 58.5918 501.486 58.5918C517.014 58.5918 531.027 61.1309 543.527 66.209C556.125 71.1895 565.988 78.1719 573.117 87.1562C580.246 96.1406 585.666 107.859 589.377 122.312L563.742 129.344C560.52 118.406 556.516 109.813 551.73 103.562C546.945 97.3125 540.109 92.332 531.223 88.6211C522.336 84.8125 512.473 82.9082 501.633 82.9082C488.645 82.9082 477.414 84.9102 467.941 88.9141C458.469 92.8203 450.803 97.9961 444.943 104.441C439.182 110.887 434.689 117.967 431.467 125.682C425.998 138.963 423.264 153.367 423.264 168.895C423.264 188.035 426.535 204.051 433.078 216.941C439.719 229.832 449.338 239.402 461.936 245.652C474.533 251.902 487.912 255.027 502.072 255.027C514.377 255.027 526.389 252.684 538.107 247.996C549.826 243.211 558.713 238.133 564.768 232.762V192.771H501.633ZM591.557 277L674.027 62.2539H704.643L792.533 277H760.16L735.111 211.961H645.316L621.732 277H591.557ZM653.52 188.816H726.322L703.91 129.344C697.074 111.277 691.996 96.4336 688.676 84.8125C685.941 98.582 682.084 112.254 677.104 125.828L653.52 188.816ZM794.859 277V62.2539H837.633L888.463 214.305C893.15 228.465 896.568 239.061 898.717 246.092C901.158 238.279 904.967 226.805 910.143 211.668L961.559 62.2539H999.791V277H972.398V97.2637L909.996 277H884.361L822.252 94.1875V277H794.859ZM1026.73 277V62.2539H1182V87.5957H1055.14V153.367H1173.94V178.562H1055.14V251.658H1186.98V277H1026.73ZM1270.73 277V62.2539H1351.74C1366 62.2539 1376.89 62.9375 1384.41 64.3047C1394.95 66.0625 1403.79 69.4316 1410.92 74.4121C1418.05 79.2949 1423.76 86.1797 1428.06 95.0664C1432.45 103.953 1434.65 113.719 1434.65 124.363C1434.65 142.625 1428.84 158.104 1417.22 170.799C1405.6 183.396 1384.6 189.695 1354.23 189.695H1299.15V277H1270.73ZM1299.15 164.354H1354.67C1373.03 164.354 1386.07 160.936 1393.78 154.1C1401.5 147.264 1405.35 137.645 1405.35 125.242C1405.35 116.258 1403.06 108.592 1398.47 102.244C1393.98 95.7988 1388.02 91.5508 1380.6 89.5C1375.81 88.2305 1366.97 87.5957 1354.08 87.5957H1299.15V164.354ZM1405.48 277L1487.95 62.2539H1518.57L1606.46 277H1574.09L1549.04 211.961H1459.24L1435.66 277H1405.48ZM1467.45 188.816H1540.25L1517.84 129.344C1511 111.277 1505.92 96.4336 1502.6 84.8125C1499.87 98.582 1496.01 112.254 1491.03 125.828L1467.45 188.816ZM1600 208.006L1626.8 205.662C1628.07 216.404 1631 225.242 1635.59 232.176C1640.28 239.012 1647.51 244.578 1657.27 248.875C1667.04 253.074 1678.02 255.174 1690.23 255.174C1701.07 255.174 1710.64 253.562 1718.94 250.34C1727.24 247.117 1733.39 242.723 1737.4 237.156C1741.5 231.492 1743.55 225.34 1743.55 218.699C1743.55 211.961 1741.6 206.102 1737.69 201.121C1733.79 196.043 1727.34 191.795 1718.36 188.377C1712.59 186.131 1699.85 182.664 1680.12 177.977C1660.4 173.191 1646.58 168.699 1638.67 164.5C1628.41 159.129 1620.75 152.488 1615.67 144.578C1610.69 136.57 1608.2 127.635 1608.2 117.771C1608.2 106.932 1611.28 96.8242 1617.43 87.4492C1623.58 77.9766 1632.56 70.7988 1644.38 65.916C1656.2 61.0332 1669.33 58.5918 1683.79 58.5918C1699.7 58.5918 1713.72 61.1797 1725.83 66.3555C1738.03 71.4336 1747.41 78.9531 1753.95 88.9141C1760.49 98.875 1764.01 110.154 1764.5 122.752L1737.25 124.803C1735.79 111.229 1730.81 100.975 1722.31 94.041C1713.91 87.1074 1701.46 83.6406 1684.96 83.6406C1667.77 83.6406 1655.22 86.8145 1647.31 93.1621C1639.5 99.4121 1635.59 106.98 1635.59 115.867C1635.59 123.582 1638.38 129.93 1643.94 134.91C1649.41 139.891 1663.67 145.018 1686.71 150.291C1709.86 155.467 1725.73 160.008 1734.32 163.914C1746.82 169.676 1756.05 177 1762.01 185.887C1767.96 194.676 1770.94 204.832 1770.94 216.355C1770.94 227.781 1767.67 238.572 1761.13 248.729C1754.59 258.787 1745.16 266.648 1732.86 272.312C1720.65 277.879 1706.88 280.662 1691.55 280.662C1672.12 280.662 1655.81 277.83 1642.62 272.166C1629.54 266.502 1619.23 258.006 1611.71 246.678C1604.29 235.252 1600.39 222.361 1600 208.006ZM1780.59 208.006L1807.4 205.662C1808.67 216.404 1811.6 225.242 1816.19 232.176C1820.88 239.012 1828.1 244.578 1837.87 248.875C1847.63 253.074 1858.62 255.174 1870.83 255.174C1881.67 255.174 1891.24 253.562 1899.54 250.34C1907.84 247.117 1913.99 242.723 1918 237.156C1922.1 231.492 1924.15 225.34 1924.15 218.699C1924.15 211.961 1922.2 206.102 1918.29 201.121C1914.38 196.043 1907.94 191.795 1898.95 188.377C1893.19 186.131 1880.45 182.664 1860.72 177.977C1840.99 173.191 1827.18 168.699 1819.27 164.5C1809.01 159.129 1801.35 152.488 1796.27 144.578C1791.29 136.57 1788.8 127.635 1788.8 117.771C1788.8 106.932 1791.87 96.8242 1798.03 87.4492C1804.18 77.9766 1813.16 70.7988 1824.98 65.916C1836.79 61.0332 1849.93 58.5918 1864.38 58.5918C1880.3 58.5918 1894.31 61.1797 1906.42 66.3555C1918.63 71.4336 1928.01 78.9531 1934.55 88.9141C1941.09 98.875 1944.61 110.154 1945.1 122.752L1917.85 124.803C1916.38 111.229 1911.4 100.975 1902.91 94.041C1894.51 87.1074 1882.06 83.6406 1865.55 83.6406C1848.37 83.6406 1835.82 86.8145 1827.91 93.1621C1820.1 99.4121 1816.19 106.98 1816.19 115.867C1816.19 123.582 1818.97 129.93 1824.54 134.91C1830.01 139.891 1844.27 145.018 1867.31 150.291C1890.46 155.467 1906.33 160.008 1914.92 163.914C1927.42 169.676 1936.65 177 1942.61 185.887C1948.56 194.676 1951.54 204.832 1951.54 216.355C1951.54 227.781 1948.27 238.572 1941.73 248.729C1935.18 258.787 1925.76 266.648 1913.46 272.312C1901.25 277.879 1887.48 280.662 1872.15 280.662C1852.71 280.662 1836.4 277.83 1823.22 272.166C1810.13 266.502 1799.83 258.006 1792.31 246.678C1784.89 235.252 1780.98 222.361 1780.59 208.006Z" fill="white"/>
<defs>
<clipPath id="clip0_107_160">
<rect width="319" height="319" fill="white" transform="translate(0 13)"/>
</clipPath>
</defs>
</svg>
