<svg width="857" height="858" viewBox="0 0 857 858" fill="none" xmlns="http://www.w3.org/2000/svg">
<g clip-path="url(#clip0_101_156)">
<path d="M190.9 72.8C193.1 70.7 195.4 68.7 197.9 66.9C265.1 23.3 342.6 0 428.6 0C509 0 584.4 22.3 648.6 60.9C653.3 63.6 666.1 72.4 672.6 80.3C610.5 11.9 428.1 158.8 428.1 158.8C365.1 110.1 307 77 263.9 65.1C227.7 55.2 202.8 63.5 190.9 72.8V72.8ZM742.8 137.4C741 135.3 738.9 133.4 737 131.2C721.4 114 702.1 109.9 684.7 110.9C668.8 116 595.7 142.3 505.6 227.4C505.6 227.4 607 326 669.2 426.9C731.3 527.7 768.4 607 745.6 716.9C817.4 638 857.2 535.2 857 428.5C857 316.2 813.8 213.8 742.8 137.4ZM588 469.9C548.5 425.7 507.6 382.7 465.5 341C453.7 329.3 441.2 317 428 304.3C428 304.3 408.2 324.1 382.6 350.1V350C349.7 383.3 307 426.6 283.3 452C241.1 497 120.2 638.3 113.5 717.6C113.5 717.6 86.6 654.8 145.6 509.8C184.1 414.9 300.6 272.7 349.2 226.3C349.2 226.3 304.7 177.5 249 143.7L248.6 143.6C248.6 143.6 247.9 143.1 247.1 142.6C220.3 126.6 190.9 114.2 162.8 112.5C134.1 114.6 115.8 135.7 115.8 135.7C41.3 214.8 -0.200013 319.7 -1.28774e-05 428.6C-1.28774e-05 665.3 191.8 857.1 428.6 857.1C554.2 857.1 667.1 803 745.6 716.8C745.6 716.7 736.6 660.2 679 579.1C665.3 560.2 615.9 501 588 469.9V469.9Z" fill="#107C10"/>
</g>
<defs>
<clipPath id="clip0_101_156">
<rect width="857" height="857.1" fill="white"/>
</clipPath>
</defs>
</svg>
